<svg xmlns="http://www.w3.org/2000/svg" width="958.559" height="702.675" viewBox="0 0 958.559 702.675"><g transform="translate(-664 -318.325)"><ellipse cx="466" cy="95" rx="466" ry="95" transform="translate(664 831)" fill="#e6e6e6"/><g transform="translate(1516.049 810.76) rotate(-11)"><path d="M25.35,3.071A16.118,16.118,0,0,0,4.337,5.023a16.458,16.458,0,0,0,.651,22.935L25.069,47.921a3.357,3.357,0,0,0,4.747,0L49.779,27.84A16.458,16.458,0,0,0,50.311,4.9a16.089,16.089,0,0,0-21-1.848A3.4,3.4,0,0,1,25.35,3.071Z" transform="translate(0 0)" fill="#e6e6e6"/></g><g transform="translate(1541.978 751.377)"><rect width="4.436" height="25.139" transform="translate(10.351)" fill="#d6d6e3"/><rect width="4.436" height="25.139" transform="translate(25.139 10.351) rotate(90)" fill="#d6d6e3"/></g><g transform="translate(1599.106 821.129) rotate(8)"><rect width="4.436" height="25.139" transform="translate(10.351)" fill="#e6e6e6"/><rect width="4.436" height="25.139" transform="translate(25.139 10.351) rotate(90)" fill="#e6e6e6"/></g><path d="M264.1,660.653l5.664,67.091L665.9,725.378l-7.556-73.242L524.418,636.55,289.564,650.731Z" transform="translate(652.936 212.971)" fill="#090814"/><path d="M677.244,753.82,545.37,766.168s90.351,23.009,143.1,11.83Z" transform="translate(500.449 166.681)" fill="#ed9da0"/><path d="M677.244,753.82,545.37,766.168s90.351,23.009,143.1,11.83Z" transform="translate(500.449 166.686)" opacity="0.035"/><path d="M1.951,437.1c16.844-35.341,85.293,24.7,85.293,24.7l96.538-67.339c25.8-12.911,22.44-116.722,22.44-116.722s-1.116-63.437,7.855-81.934,83.046-32.532,83.046-32.532l4-.4c12.562-16.122,11.89-32.723,9.063-43.906a61.721,61.721,0,1,1,53.109-3.267c.761,6.2,3.47,25.954,8.93,43.262l71.885,22.28c61.74,12.327,40.416,83.046,40.416,83.046s3.354,67.326,5.6,83.046,7.853,38.162,7.853,38.162l69.634,53.932s97.1-46.153,90.911-5.755S559.764,465.1,559.764,465.1l-87.545-31.426c-15.155-7.288-22.442-32.533-22.442-32.533s-8.991-112.739-5.623-130.123-19.917-36.057-19.917-36.057l-11.33,32.353c-1.1,11.748-2.008,19.719-2.008,19.719l-133.792,6.742s-.85-4-1.88-10.608l-16.254,4.689-14.594,115.6c-1.689,19.087-17.955,26.94-17.955,26.94L191.631,452.84,82.765,485.372S-14.885,472.448,1.951,437.1Z" transform="translate(786.846 373.393)" fill="#ed9da0"/><path d="M614.568,716.3s-124.022-2.81-160.488-11.83-67.9,34.277-54.994,59.031,48.8,41.523,48.8,41.523S632.52,814,672.358,788.762c0,0,15.157-43.209,0-51.623H479.885l141.959-2.81Z" transform="translate(429.003 142.475)" fill="#090814"/><path d="M699.644,707.72s41.538,8.976,98.765-13.471c0,0,107.194-3.357,71.275,65.065s-234.573,51.638-234.573,51.638-11.83-25.257,0-31.985,114.484-49.952,146.469-47.7l-88.725,17.39Z" transform="translate(540.895 138.149)" fill="#090814"/><path d="M535.438,509.259c-.916,12.712,14.7,70.32,14.7,70.32s-11.83,35.357,0,70.152-14.6,164.421-14.6,164.421,138.617,44.362,223.29-6.728c0,0-62.285-131.327-35.919-175.1s.444-60.88.444-60.88l3.757-64.715s-12.458-13.219-22.736-3.739,0,63.479,0,63.479-83.17,51.326-140.545,6.392c-.261-.2.572.471,0,0L556.5,499.076S536.354,496.547,535.438,509.259Z" transform="translate(495.676 44.626)" fill="#2563EB"/><path d="M575.984,739.261l27.068-3.948s31.239-43.209,53.629-10.1c0,0,9.37,21.323,20.826,25.242a144.3,144.3,0,0,0,23.954,5.619l-46.344,14.033s-20.3,12.909-41.652,9.538a75.224,75.224,0,0,0-37.481,3.372s-1.764-14.017,0-25.459S575.984,739.261,575.984,739.261Z" transform="translate(524.499 147.007)" fill="#ed9da0"/><path d="M88.138,16.491c-2.071,12.073,7.041,23.737,5.974,35.953-.951,10.762-9.4,19.031-16.567,27.087C72.365,85.344,67.418,92.508,66.3,99.907a53.134,53.134,0,0,1-25.614,9.629c-8.66.816-17.8-.666-24.89-5.711S4.11,89.77,5.757,81.185a20.162,20.162,0,0,0,4.159,31.488,32.926,32.926,0,0,0,6.948,30.954c7.4,8.205,37.414,6.792,48.219,4.643l-.838,1.431.023.023c-1.587-.931-3.735.483-4.255,2.275s.09,3.677.664,5.447c1,2.965,1.972,5.907,2.975,8.872,2.114,6.286,4.356,12.791,8.921,17.572,6.9,7.217,17.9,9.061,27.775,7.723,12.682-1.724,25.2-8.608,31.1-20.037s3.381-27.346-7.279-34.471c15.2-17.5,20.488-37.011,19.651-60.2C143,53.691,117.819,32.344,101.4,15.991a4.53,4.53,0,0,0-.39.27A34.644,34.644,0,0,1,111.338.3a17.413,17.413,0,0,0-3.26-.3C98.8,0,89.715,7.182,88.138,16.491Z" transform="translate(1186.366 510.342) rotate(180)" fill="#090814"/><g transform="translate(1541.979 880.584)"><path d="M604.664,301.657c2.1,1.953-.519,6.1-3.388,6.1a5.2,5.2,0,0,1-5.195-5.195c0-2.869,5.614-15.525,4.517-12.874C600.248,290.533,602.257,299.421,604.664,301.657Z" transform="translate(-573.983 -289.324)" fill="#ff6584"/><g transform="translate(0 16.658)"><path d="M527.033,780.148c1.129,1.049-2.047,32.839-2.047,32.839l-.354,5.585a4.436,4.436,0,0,1-4.43,4.159H480.633a4.436,4.436,0,0,1-4.43-4.159l-.482-7.7s-2.742-29.4-1.921-30.72S525.9,779.1,527.033,780.148Z" transform="translate(-473.646 -779.258)" fill="#2f2e41"/><path d="M525.266,825.989l-.3,5.243c-.146,2.339-.717,4.089-3.061,4.087h-40.42c-2.344,0-3.625-1.18-3.771-3.519l-.542-7.873c4.259-3.4,10.3-6.011,19.648-3.047C509.874,825.019,517.343,826.186,525.266,825.989Z" transform="translate(-474.487 -792.485)" fill="#090814"/></g></g></g></svg>