<svg xmlns="http://www.w3.org/2000/svg" width="722.13" height="800" viewBox="0 0 722.13 800"><g transform="translate(-776.958 -173.497)"><g transform="translate(1085.952 281.561)"><g transform="translate(0 11.863)"><rect width="226.749" height="3.04" transform="translate(0 652.288)" fill="#e6e6e6"/><path d="M1015.07,249.672l16.747-12.379c5.581,7.015,13.149,9.176,21.056,13.4,13.28,7.151-25.54,80.707-25.54,80.707l-62.318-77.642s19.821-13.171,26.256-18.336Z" transform="translate(-922.11 -152.825)" fill="#2563EB"/><path d="M8.258,73.642c2.152-1.844,4.3-7.386,6.26-14.237a32.391,32.391,0,1,1,39.84-3.22,195.377,195.377,0,0,0,.892,20.522S43.7,87.476,33.481,88.5c-.5.05-1.03.074-1.583.074C21.164,88.572,1.457,79.47,8.258,73.642Z" transform="translate(54.246 12.326)" fill="#ed9da0"/><path d="M1081.434,444.873s0,149.154-23.5,203.3l-54.146,121.571S969.056,767.7,967.012,753.4l40.864-126.679,24.519-74.578,6.13-116.463Z" transform="translate(-922.065 -148.813)" fill="#2f2e41"/><path d="M1047.962,448.764l-9.195,62.318,6.129,136.9,3.065,75.6s12.259,33.714,8.173,36.779l-8.173,6.128s-32.691-4.087-33.714-6.129-20.432-156.31-20.432-156.31-39.843-124.632-37.8-126.674,11.237-32.691,11.237-32.691Z" transform="translate(-922.305 -148.618)" fill="#2f2e41"/><path d="M1053.624,749.678l4.087,23.5s11.462,42.8,0,48.015-31.67-13.281-32.691-21.453,2.043-44.951,2.043-44.951Z" transform="translate(-920.817 -142.029)" fill="#2f2e41"/><path d="M955.015,465.915s6.129,24.519,13.281,22.475v-28.6l-3.065-5.108Z" transform="translate(-922.325 -148.402)" fill="#ed9da0"/><path d="M1003.009,757.9s8.173,16.345,13.281,18.389,28.369,15.407,14.7,24.05-27.977.468-27.977.468l-46.993-25.54s6.129-25.54,15.324-27.584S1003.009,757.9,1003.009,757.9Z" transform="translate(-922.303 -142.077)" fill="#2f2e41"/><path d="M1104.595,466.83s-3.065,40.864-20.432,38.821,3.065-45.973,3.065-45.973Z" transform="translate(-919.684 -148.294)" fill="#ed9da0"/><path d="M162.433,219.5l2.485-34.735-5.841-22.906c1.989,24.272,2.439,44.967-1.751,45.385-8.706.871-84.171,1.741-107.565-1.181L32.691,228.7c-15.324-12.26-13.281-27.583-13.281-27.583L0,137.776S0,61.153,1.021,45.828s16.346-31.67,16.346-31.67l1.491-.344C24.951,9.532,50.29,0,50.29,0l52.892,63.2S130.561,15.468,127.6,0c0,0,35.1,8.853,41.178,20.906l.808.4s16.346,49.038,16.346,91.947S189,184.769,189,184.769L186.951,228.7Zm-127.7-74.574,2.6,10.583c3.235-4.384,5.59-8.513,3.529-11.6-4.086-6.129-5.108-4.086-4.086-8.173.429-1.717.137-12.272-.346-23.937Z" transform="translate(0 95.969)" fill="#3f3d56"/><path d="M442.42,178.186s8.342-15.947-10.01-17.4c0,0-15.645-14.192-31.592-2.595,0,0-8.7,0-13.455,9.843,0,0-6.841-2.595-8.345,4.349,0,0-5.006,14.5,0,27.545s7.065,13.875,7.065,13.875-8.622-26.732,11.4-28.182,42.427-13.962,44.1,1.985,4.179,19.876,4.179,19.876S461.607,184.71,442.42,178.186Z" transform="translate(-327.802 -153.636)" fill="#090814"/></g><g transform="translate(225.365 15.591)"><path d="M-4534.718,2097.306v-18.64c0-2.679,1.657-5.209,4.543-6.941a18.59,18.59,0,0,1,9.437-2.379,18.584,18.584,0,0,1,9.437,2.379c2.888,1.732,4.543,4.262,4.543,6.941v18.64c0,5.226-6.141,9.32-13.98,9.32S-4534.718,2102.532-4534.718,2097.306Zm4.66,0c0,2.2,3.986,4.66,9.32,4.66,4.4,0,9.32-1.993,9.32-4.66v-2.319a18.5,18.5,0,0,1-9.32,2.319,18.5,18.5,0,0,1-9.32-2.319Zm0-9.32c0,2.2,3.986,4.66,9.32,4.66,4.4,0,9.32-1.993,9.32-4.66v-2.319a18.5,18.5,0,0,1-9.32,2.319,18.5,18.5,0,0,1-9.32-2.319Zm2.281-12.265c-1.449.87-2.281,1.943-2.281,2.945,0,2.2,3.986,4.66,9.32,4.66,4.4,0,9.32-1.993,9.32-4.66,0-1-.832-2.075-2.281-2.945a14.1,14.1,0,0,0-7.039-1.715A14.1,14.1,0,0,0-4527.777,2075.721Zm-20.921,22.891v-1.306h-2.33a2.33,2.33,0,0,1-2.33-2.33,2.33,2.33,0,0,1,2.33-2.33h5.826a1.166,1.166,0,0,0,1.164-1.166,1.165,1.165,0,0,0-1.164-1.165h-2.33a5.832,5.832,0,0,1-5.826-5.826,5.832,5.832,0,0,1,4.66-5.707v-1.042a2.33,2.33,0,0,1,2.33-2.33,2.33,2.33,0,0,1,2.33,2.33v.925h2.33a2.33,2.33,0,0,1,2.33,2.33,2.33,2.33,0,0,1-2.33,2.33h-5.824a1.166,1.166,0,0,0-1.166,1.164,1.167,1.167,0,0,0,1.166,1.166h2.33a5.832,5.832,0,0,1,5.824,5.824,5.837,5.837,0,0,1-4.66,5.709v1.423a2.33,2.33,0,0,1-2.33,2.33A2.33,2.33,0,0,1-4548.7,2098.612Z" transform="translate(4553.358 -2069.345)" fill="#d6d6e3"/></g><g transform="translate(312.342 80.182)"><path d="M-4634.372,2044.51a5.971,5.971,0,0,1-5.964-5.963v-23.854a5.971,5.971,0,0,1,5.964-5.964h2.326a5.932,5.932,0,0,1,1.409-2.229,5.924,5.924,0,0,1,4.217-1.747h3.975a5.974,5.974,0,0,1,5.624,3.976h2.328a5.97,5.97,0,0,1,5.964,5.964v23.854a5.97,5.97,0,0,1-5.964,5.963Zm-1.988-29.816v23.854a1.991,1.991,0,0,0,1.988,1.988h19.878a1.991,1.991,0,0,0,1.988-1.988v-23.854a1.99,1.99,0,0,0-1.988-1.988h-2.328a5.974,5.974,0,0,1-5.624,3.976h-3.975a5.974,5.974,0,0,1-5.623-3.976h-2.329A1.99,1.99,0,0,0-4636.36,2014.693Zm8.533-5.382a1.975,1.975,0,0,0-.581,1.406,1.99,1.99,0,0,0,1.988,1.988h3.975a1.99,1.99,0,0,0,1.988-1.988,1.99,1.99,0,0,0-1.988-1.988h-3.975A1.981,1.981,0,0,0-4627.827,2009.312Zm7.37,24.821V2022a2.24,2.24,0,0,1,1.988-2.426,2.239,2.239,0,0,1,1.988,2.426v12.132a2.24,2.24,0,0,1-1.988,2.427A2.241,2.241,0,0,1-4620.458,2034.132Zm-5.963.249v-2.177a2.089,2.089,0,0,1,1.987-2.178,2.089,2.089,0,0,1,1.988,2.178v2.177a2.089,2.089,0,0,1-1.988,2.178A2.089,2.089,0,0,1-4626.42,2034.382Zm-5.964-.05v-6.683a2.118,2.118,0,0,1,1.988-2.227,2.117,2.117,0,0,1,1.988,2.227v6.683a2.118,2.118,0,0,1-1.988,2.228A2.119,2.119,0,0,1-4632.384,2034.332Z" transform="translate(4640.335 -2004.754)" fill="#d6d6e3"/></g><g transform="translate(375.789 0)"><path d="M-4692.384,2117.531l-10.79-10.79a2.071,2.071,0,0,1-.6-1.655l1.543-16.908a2.073,2.073,0,0,1,2.254-1.877,2.067,2.067,0,0,1,.9.3h11.939a11.673,11.673,0,0,1,12.005,0l.777.463.011.006a1.247,1.247,0,0,0,.882.156l1.693-.341a2.067,2.067,0,0,1,1.393-.742A2.077,2.077,0,0,1-4668.1,2088l1.659,16.662a2.072,2.072,0,0,1-.525,1.6,2.077,2.077,0,0,1-1.538.682h-1.047a5.578,5.578,0,0,1-1.636,3.952,5.578,5.578,0,0,1-3.957,1.636q-.2,0-.4-.014a5.56,5.56,0,0,1-1.452,2.528,5.579,5.579,0,0,1-3.957,1.636,5.609,5.609,0,0,1-2.478-.575,5.562,5.562,0,0,1-1.036,1.428,5.579,5.579,0,0,1-3.957,1.636A5.579,5.579,0,0,1-4692.384,2117.531Zm-7.168-13.036,10.1,10.1a1.448,1.448,0,0,0,2.046,0,1.447,1.447,0,0,0,0-2.045l-.019-.02-.811-.81a2.077,2.077,0,0,1,0-2.935,2.074,2.074,0,0,1,2.935,0l3.32,3.32a1.448,1.448,0,0,0,2.046,0,1.449,1.449,0,0,0,0-2.045l-3.321-3.321a2.074,2.074,0,0,1,0-2.934,2.074,2.074,0,0,1,2.935,0l3.3,3.3.02.019.019.019.812.811a1.446,1.446,0,0,0,2.044,0,1.448,1.448,0,0,0,0-2.046l-6.439-6.44a2.911,2.911,0,0,0-4.106,0l-1.459,1.46a5.6,5.6,0,0,1-7.914,0,5.6,5.6,0,0,1,0-7.914l2.268-2.268h-6.521Zm28.752-1.7-1.159-11.638-.688.139h-.008a5.39,5.39,0,0,1-3.822-.669l-.777-.464a7.532,7.532,0,0,0-9.193,1.131l-4.662,4.663a1.446,1.446,0,0,0,0,2.045,1.446,1.446,0,0,0,2.044,0l1.462-1.46a7.064,7.064,0,0,1,9.972,0l6.253,6.254Z" transform="translate(4703.782 -2084.936)" fill="#d6d6e3"/></g></g><rect width="1.553" height="4.66" transform="translate(1097.874 173.497)" fill="#e5e5e5"/><g transform="translate(776.958 189.653)"><rect width="1.331" height="3.994" transform="translate(7.611 118.632)" fill="#e5e5e5"/><rect width="1.331" height="3.994" transform="translate(153.4 118.632)" fill="#e5e5e5"/><rect width="1.331" height="3.994" transform="translate(226.941 40.494)" fill="#e5e5e5"/><rect width="1.331" height="3.994" transform="translate(80.838 65.125)" fill="#e5e5e5"/><path d="M419.2,124.446,345.92,69.555,273.637,123.7l-1.654-2.208,73.937-55.38,72.935,54.63,72.478-79.315.291-.118,73.11-29.457,1.031,2.56L492.947,43.747Z" transform="translate(-264.534 -3.961)" fill="#3f3d56"/><ellipse cx="8.277" cy="8.277" rx="8.277" ry="8.277" transform="translate(0 110.355)" fill="#2563EB"/><ellipse cx="8.277" cy="8.277" rx="8.277" ry="8.277" transform="translate(73.11 56.557)" fill="#2563EB"/><ellipse cx="8.277" cy="8.277" rx="8.277" ry="8.277" transform="translate(146.22 110.355)" fill="#2563EB"/><ellipse cx="8.277" cy="8.277" rx="8.277" ry="8.277" transform="translate(219.33 30.347)" fill="#2563EB"/><ellipse cx="8.277" cy="8.277" rx="8.277" ry="8.277" transform="translate(292.44)" fill="#2563EB"/></g></g></svg>